<svg version="1.1" xmlns="http://www.w3.org/2000/svg" xmlns:xlink="http://www.w3.org/1999/xlink" width="48" height="48"><defs><linearGradient x1="15.17159" y1="14.22988" x2="33.53552" y2="34.47723" gradientUnits="userSpaceOnUse" id="color-1"><stop offset="0" stop-color="#000000" stop-opacity="0.3"></stop><stop offset="1" stop-color="#000000" stop-opacity="0"></stop></linearGradient><filter id="dropshadow-base"><feColorMatrix type="matrix" values="0 0 0 0 0  0 0 0 0 0  0 0 0 0 0  0 0 0 .8 0"></feColorMatrix> <feOffset dx="0" dy="1"></feOffset> <feGaussianBlur stdDeviation="1"></feGaussianBlur> <feComposite in="SourceGraphic"></feComposite></filter><filter id="dropshadow-banner" x="-10%" y="-10%" width="120%" height="130%"><feColorMatrix type="matrix" values="0 0 0 0 0  0 0 0 0 0  0 0 0 0 0  0 0 0 .4 0"></feColorMatrix> <feOffset dx="0" dy="1"></feOffset> <feGaussianBlur stdDeviation="0.5"></feGaussianBlur> <feComposite in="SourceGraphic"></feComposite></filter></defs><g fill="none" fill-rule="nonzero" stroke="none" stroke-width="none" stroke-linecap="butt" stroke-linejoin="miter" stroke-miterlimit="10" stroke-dasharray="" stroke-dashoffset="0" font-family="none" font-weight="none" font-size="none" text-anchor="none" style="mix-blend-mode: normal"><path d="M2,24c0,-12.15026 9.84974,-22 22,-22c12.15026,0 22,9.84974 22,22c0,12.15026 -9.84974,22 -22,22c-12.15026,0 -22,-9.84974 -22,-22z" id="base 1 5" fill="#00b199" stroke-width="1"></path><path d="M21.67602,25.4379l-0.70711,-0.70711c0.05395,-0.22071 0.08828,-0.45123 0.08828,-0.68665c0,-0.23542 -0.03433,-0.46595 -0.08828,-0.68665l6.91559,-4.03655c0.5248,0.49047 1.22617,0.79455 2.0011,0.79455c1.62345,0 2.94281,-1.31936 2.94281,-2.94281c0,-0.63146 -0.19961,-1.21692 -0.53908,-1.69662c-0.4797,-0.33947 -1.06516,-0.53908 -1.69662,-0.53908c-1.62345,0 -2.94281,1.31936 -2.94281,2.94281c0,0.23542 0.03433,0.46595 0.08828,0.68665l-6.91559,4.03655c-0.5248,-0.49047 -1.22617,-0.79455 -2.0011,-0.79455c-1.62345,0 -2.94281,1.31936 -2.94281,2.94281c0,0.63146 0.19961,1.21692 0.53908,1.69662c0.4797,0.33947 1.06516,0.53908 1.69662,0.53908c0.77494,0 1.4763,-0.30408 2.0011,-0.79455l6.98916,4.07579l0.70711,0.70711c-0.04905,0.20599 -0.07847,0.4218 -0.07847,0.64251c0,0.60906 0.19039,1.17362 0.5149,1.63742c0.4638,0.32451 1.02837,0.5149 1.63742,0.5149c1.57931,0 2.85943,-1.28012 2.85943,-2.85943c0,-0.60906 -0.19039,-1.17362 -0.5149,-1.63742c-0.4638,-0.32451 -1.02837,-0.5149 -1.63742,-0.5149c-0.74551,0 -1.41745,0.28937 -1.92754,0.75532zM33.45214,31.6178c0,1.57931 -1.28012,2.85943 -2.85943,2.85943c-0.78965,0 -1.50451,-0.32003 -2.02195,-0.83747l-0.70711,-0.70711l0,0c0,0 0,0 0,0c-0.51744,-0.51744 -0.83747,-1.2323 -0.83747,-2.02195c0,-0.12775 0.00986,-0.25387 0.02768,-0.37738l-6.23125,-3.63381c-0.5248,0.49047 -1.22617,0.79455 -2.0011,0.79455c-0.81173,0 -1.54743,-0.32984 -2.0802,-0.86261l-0.70711,-0.70711c0,0 0,0 0,0c-0.53277,-0.53277 -0.86261,-1.26847 -0.86261,-2.0802c0,-1.62345 1.31936,-2.94281 2.94281,-2.94281c0.77494,0 1.4763,0.30408 2.0011,0.79455l6.91559,-4.03655c-0.05395,-0.22071 -0.08828,-0.45123 -0.08828,-0.68665c0,-1.62345 1.31936,-2.94281 2.94281,-2.94281c0.81173,0 1.54743,0.32984 2.0802,0.86261l0,0l0,0l0.70711,0.70711c0.53277,0.53277 0.86261,1.26847 0.86261,2.0802c0,1.62345 -1.31936,2.94281 -2.94281,2.94281c-0.77494,0 -1.4763,-0.30408 -2.0011,-0.79455l-6.91559,4.03655c0.05395,0.22071 0.08828,0.45123 0.08828,0.68665c0,0.14321 -0.0127,0.28461 -0.0348,0.42309l6.22857,3.63224c0.51009,-0.46595 1.18203,-0.75532 1.92754,-0.75532c0.78965,0 1.50451,0.32003 2.02195,0.83747l0.70711,0.70711c0.51744,0.51744 0.83747,1.2323 0.83747,2.02195z" fill="url(#color-1)" stroke-width="1"></path><path transform="translate(0.55174,0.55174) scale(0.97701,0.97701)" d="M30.0241,28.14659c-0.76305,0 -1.4508,0.29618 -1.97289,0.77309l-7.15361,-4.17169c0.05522,-0.2259 0.09036,-0.46185 0.09036,-0.70281c0,-0.24096 -0.03514,-0.47691 -0.09036,-0.70281l7.07831,-4.13153c0.53715,0.50201 1.25502,0.81325 2.04819,0.81325c1.66165,0 3.01205,-1.3504 3.01205,-3.01205c0,-1.66165 -1.3504,-3.01205 -3.01205,-3.01205c-1.66165,0 -3.01205,1.3504 -3.01205,3.01205c0,0.24096 0.03514,0.47691 0.09036,0.70281l-7.07831,4.13153c-0.53715,-0.50201 -1.25502,-0.81325 -2.04819,-0.81325c-1.66165,0 -3.01205,1.3504 -3.01205,3.01205c0,1.66165 1.3504,3.01205 3.01205,3.01205c0.79317,0 1.51104,-0.31124 2.04819,-0.81325l7.15361,4.17169c-0.0502,0.21084 -0.08032,0.43173 -0.08032,0.65763c0,1.61647 1.31024,2.92671 2.92671,2.92671c1.61647,0 2.92671,-1.31024 2.92671,-2.92671c0,-1.61647 -1.31024,-2.92671 -2.92671,-2.92671z" fill="none" stroke-width="0"></path><path d="M32.74503,30.91068c0,1.5793 -1.28012,2.85942 -2.85942,2.85942c-1.5793,0 -2.85942,-1.28012 -2.85942,-2.85942c0,-0.22071 0.02943,-0.43652 0.07847,-0.64251l-6.98916,-4.07578c-0.5248,0.49047 -1.22617,0.79456 -2.00111,0.79456c-1.62345,0 -2.9428,-1.31936 -2.9428,-2.9428c0,-1.62345 1.31936,-2.9428 2.9428,-2.9428c0.77494,0 1.47631,0.30409 2.00111,0.79456l6.91559,-4.03655c-0.05395,-0.22071 -0.08828,-0.45123 -0.08828,-0.68665c0,-1.62345 1.31936,-2.9428 2.9428,-2.9428c1.62345,0 2.9428,1.31936 2.9428,2.9428c0,1.62345 -1.31936,2.9428 -2.9428,2.9428c-0.77494,0 -1.47631,-0.30409 -2.00111,-0.79456l-6.91559,4.03655c0.05395,0.22071 0.08828,0.45123 0.08828,0.68665c0,0.23542 -0.03433,0.46594 -0.08828,0.68665l6.98916,4.07578c0.51009,-0.46594 1.18203,-0.75532 1.92754,-0.75532c1.5793,0 2.85942,1.28012 2.85942,2.85942z" fill="#ffffff" stroke-width="0"></path><path d="M2,24c0,-12.15026 9.84974,-22 22,-22c12.15026,0 22,9.84974 22,22c0,12.15026 -9.84974,22 -22,22c-12.15026,0 -22,-9.84974 -22,-22z" id="base 1 1 1" fill="none" stroke-width="1"></path><g fill="#000000" stroke-width="1" font-family="Roboto, sans-serif" font-weight="400" font-size="14" text-anchor="start"></g><rect x="2" y="2" width="44" height="22" fill="none" stroke-width="1"></rect><path d="M2,24v-22h44v22z" fill="none" stroke-width="1"></path><path d="M2,24v-22h44v22z" fill="none" stroke-width="1"></path><path d="M2,24v-22h44v22z" fill="none" stroke-width="1"></path><path d="M2,24v-22h44v22z" fill="none" stroke-width="1"></path><path d="M24,2c12.15026,0 22,9.84974 22,22h-44c0,-12.15026 9.84974,-22 22,-22z" id="base 1 1 1" fill-opacity="0.1" fill="#000000" stroke-width="1"></path></g></svg>